<svg height="512" viewBox="0 0 60 60" width="512" xmlns="http://www.w3.org/2000/svg"><g id="Page-1" fill="none" fill-rule="evenodd"><g id="001---Speech-Bubble" fill-rule="nonzero"><path id="Shape" d="m50.424 48.677c-.4993204.1257968-.8180328.614315-.732 1.122l1.288 8.011c.0812981.4360035-.1343012.8734642-.5295993 1.0745807-.395298.2011166-.8758379.117832-1.1804007-.2045807l-8.382-9.348c-.1896334-.2112542-.4601177-.3319542-.744-.332h-28.144c-2.91738139 0-5.71527443-1.1589252-7.77817459-3.2218254-2.06290017-2.0629002-3.22182541-4.8607932-3.22182541-7.7781746v-26c0-6.07513225 4.92486775-11 11-11h36c6.0751322 0 11 4.92486775 11 11v26c-.0630977 5.1077287-3.6020991 9.5137359-8.576 10.677z" fill="#e91e63"/><path id="Shape" d="m48 1h-3c6.0751322 0 11 4.92486775 11 11v26c-.0630977 5.1077287-3.6020991 9.5137359-8.576 10.677-.4992181.1258057-.8176183.614513-.731 1.122l1.176 7.318 1.4 1.563c.3045628.3224127.7851027.4056973 1.1804007.2045807.3952981-.2011165.6108974-.6385772.5295993-1.0745807l-1.286-8.01c-.0866183-.507487.2317819-.9961943.731-1.122 4.9742593-1.1633539 8.513359-5.5698963 8.576-10.678v-26c0-2.91738139-1.1589252-5.71527443-3.2218254-7.77817459-2.0629002-2.06290017-4.8607932-3.22182541-7.7781746-3.22182541z" fill="#ad1457"/><circle id="Oval" cx="14" cy="25" fill="#ffeb3a" r="4"/><circle id="Oval" cx="30" cy="25" fill="#ffeb3a" r="4"/><circle id="Oval" cx="46" cy="25" fill="#ffeb3a" r="4"/><path id="Shape" d="m5 13c-.55228475 0-1-.4477153-1-1 .00495988-4.41622192 3.58377808-7.99504012 8-8 .5522847.00000001 1 .44771526 1 1s-.4477153.99999999-1 1c-3.31233757.00330738-5.99669262 2.68766243-6 6 0 .2652165-.10535684.5195704-.29289322.7071068s-.44189029.2928932-.70710678.2928932z" fill="#f5f5f5"/><circle id="Oval" cx="16" cy="5" fill="#f5f5f5" r="1"/><g fill="#000"><path id="Shape" d="m12 50h28.144l8.4 9.362c.3726397.4046154.8969372.6357846 1.447.638.3179826-.0002887.6313134-.0763931.914-.222.7902208-.3908112 1.2241358-1.2594584 1.062-2.126l-1.285-8.008c5.4002815-1.2985425 9.2349285-6.0904109 9.318-11.644v-26c-.0071648-6.62444695-5.375553-11.99283515-12-12h-36c-6.62444695.00716485-11.99283515 5.37555305-12 12v26c.00716485 6.624447 5.37555305 11.9928352 12 12zm-10-38c.00606237-5.52033443 4.47966557-9.99393763 10-10h36c5.5203344.00606237 9.9939376 4.47966557 10 10v26c-.0792311 4.6380629-3.29394 8.6317458-7.808 9.7-1.0066867.2499111-1.6533923 1.2301898-1.487 2.254l1.31 8.055-8.383-9.349c-.3799859-.4210265-.9208565-.6609288-1.488-.66h-28.144c-5.52033443-.0060624-9.99393763-4.4796656-10-10z"/><path id="Shape" d="m14 30c2.7614237 0 5-2.2385763 5-5s-2.2385763-5-5-5-5 2.2385763-5 5c.00330612 2.7600532 2.2399468 4.9966939 5 5zm0-8c1.6568542 0 3 1.3431458 3 3s-1.3431458 3-3 3-3-1.3431458-3-3 1.3431458-3 3-3z"/><path id="Shape" d="m30 30c2.7614237 0 5-2.2385763 5-5s-2.2385763-5-5-5-5 2.2385763-5 5c.0033061 2.7600532 2.2399468 4.9966939 5 5zm0-8c1.6568542 0 3 1.3431458 3 3s-1.3431458 3-3 3-3-1.3431458-3-3 1.3431458-3 3-3z"/><path id="Shape" d="m46 30c2.7614237 0 5-2.2385763 5-5s-2.2385763-5-5-5-5 2.2385763-5 5c.0033061 2.7600532 2.2399468 4.9966939 5 5zm0-8c1.6568542 0 3 1.3431458 3 3s-1.3431458 3-3 3-3-1.3431458-3-3 1.3431458-3 3-3z"/></g></g></g></svg>